<svg width="216" height="439" viewBox="0 0 216 439" fill="none" xmlns="http://www.w3.org/2000/svg">
<path d="M64.9999 44.7669C64.5999 17.9669 89.4999 4.26693 102 0.766927C106.667 0.10026 118.7 0.266927 129.5 6.26693C143 13.7669 153.5 55.7669 150 61.7669C146.5 67.7669 149.5 80.2669 152 98.7669C154.5 117.267 163 122.267 170.5 131.267C178 140.267 173 197.767 170.5 221.267C168 244.767 82 247.767 77 263.267C72 278.767 39 286.767 29 292.767C19 298.767 9 247.767 3 238.267C-3 228.767 5.5 209.767 9 206.767C12.5 203.767 0.5 185.267 0.5 176.267C0.5 167.267 13 162.767 20 151.267C27 139.767 43.5 106.767 48.5 96.7669C53.5 86.7669 65.4999 78.2669 64.9999 44.7669Z" fill="black" stroke="black"/>
<path d="M38.9999 142.5C41.3999 121.7 57.3333 116.833 64.9999 117C79.4999 114.5 69.5 144 69.5 153C69.5 162 58 206.5 55.5 221.5C53 236.5 36.9999 224 34.4999 219.5C31.9999 215 35.9999 168.5 38.9999 142.5Z" fill="#BE8659"/>
<path d="M64.5 116C85.7 111.2 89 88.6665 88 77.9999C100 82.3332 123 91.3999 119 92.9999C115 94.5999 114.667 102.667 115 106.5C117.5 107.667 125.6 110.7 138 113.5C150.4 116.3 159.5 120 162.5 121.5C160.167 124.167 155.5 130.5 155.5 134.5C155.5 138.5 127.167 154.833 113 162.5L68 151C58 141.333 43.3 120.8 64.5 116Z" fill="#BE8659"/>
<path d="M33.3674 200.549C34.244 192.437 43.9348 195.247 48.6706 197.666C50.8267 199.312 55.8173 203.449 58.5302 206.819C61.2432 210.19 49.1716 259.034 42.7967 283.036C40.119 290.472 33.9332 302.809 30.6109 292.666C26.4581 279.987 32.2715 210.688 33.3674 200.549Z" fill="#BE8659"/>
<path d="M164.885 214.195C164.141 206.071 174.196 206.909 179.316 208.343C181.755 209.531 187.465 212.599 190.791 215.366C194.117 218.134 191.942 268.401 190.439 293.189C189.284 301.008 185.66 314.325 180.398 305.039C173.82 293.432 165.816 224.351 164.885 214.195Z" fill="#BE8659"/>
<path d="M29.0229 274.376C29.8229 270.376 30.6895 268.71 31.0229 268.376C32.5227 264.876 36.8225 256.776 42.0225 252.376C47.2225 247.976 46.5225 261.21 45.5225 268.376C44.3558 272.376 42.7225 281.376 45.5225 285.376C48.3225 289.376 46.6891 296.71 45.5225 299.876C45.0225 307.376 43.3225 322.876 40.5225 324.876C37.7225 326.876 37.3558 323.043 37.5225 320.876C38.5225 316.543 39.9225 307.076 37.5225 303.876C34.5225 299.876 30.0225 314.876 31.0229 318.876C32.0233 322.876 40.5225 330.376 39.0225 334.376C37.5225 338.376 29.0229 328.376 24.0225 324.876C19.0221 321.376 20.0224 305.376 19.5224 303.876C19.0224 302.376 27.0229 285.376 29.0229 282.876C31.0229 280.376 28.0229 279.376 29.0229 274.376Z" fill="#BE8659"/>
<path d="M190.486 287.314C190.155 283.248 189.488 281.492 189.195 281.122C188.111 277.472 184.779 268.928 180.124 263.955C175.469 258.982 174.631 272.207 174.793 279.442C175.489 283.55 176.068 292.679 172.823 296.327C169.578 299.976 170.351 307.449 171.142 310.729C170.77 318.237 170.661 333.829 173.211 336.14C175.76 338.452 176.569 334.687 176.654 332.515C176.163 328.095 175.87 318.53 178.625 315.63C182.068 312.004 184.799 327.425 183.342 331.282C181.885 335.139 172.573 341.603 173.6 345.75C174.626 349.897 184.227 340.95 189.6 338.053C194.972 335.156 195.833 319.148 196.503 317.716C197.174 316.284 191.198 298.471 189.501 295.756C187.804 293.042 190.9 292.396 190.486 287.314Z" fill="#BE8659"/>
<path d="M87.413 47.3943C93.813 39.7943 110.413 28.8943 117.913 24.3943C122.313 19.9943 132.413 32.8943 136.913 39.8943C137.246 45.061 137.713 57.3943 136.913 65.3943C135.913 75.3943 122.913 90.8943 119.413 93.3943C116.266 95.6425 94.1131 84.1426 88.5921 78.8943C87.9738 78.3065 87.564 77.7972 87.413 77.3943C85.913 73.3943 79.413 56.8943 87.413 47.3943Z" fill="#BE8659"/>
<path d="M163 123.252C157 112.852 153.5 121.919 152.5 127.752V155.752C152.5 168.252 163 203.752 168.5 224.252C174 244.752 180 235.752 190.5 233.252C201 230.752 170.5 136.252 163 123.252Z" fill="#BE8659"/>
<path d="M114.774 143.5C132.374 150.3 146.774 133 151.774 123.5V148C151.774 152.5 148.274 170.5 140.774 173C133.274 175.5 134.274 209.5 148.274 225C162.274 240.5 176.274 411 178.274 425.5C180.274 440 51.2744 444.5 38.7744 425.5C26.2744 406.5 53.2744 236 57.7744 230C62.2744 224 67.774 177 63.774 173C59.774 169 68.774 125.5 71.274 132C73.774 138.5 92.774 135 114.774 143.5Z" fill="#D9D9D9" stroke="white"/>
<path d="M126.645 58.5276C126.98 58.6299 127.169 58.9851 127.067 59.3206L125.743 63.6633C125.64 63.9988 125.285 64.1876 124.95 64.0852C124.614 63.9829 124.426 63.6286 124.528 63.2932L125.852 58.9504C125.954 58.615 126.309 58.4253 126.645 58.5276ZM128.645 58.5276C128.98 58.6299 129.169 58.9851 129.067 59.3206L127.743 63.6633C127.64 63.9988 127.285 64.1876 126.95 64.0852C126.614 63.9829 126.426 63.6286 126.528 63.2932L127.852 58.9504C127.954 58.615 128.309 58.4253 128.645 58.5276ZM130.645 58.5276C130.98 58.6299 131.169 58.9851 131.067 59.3206L129.743 63.6633C129.64 63.9988 129.285 64.1876 128.95 64.0852C128.614 63.9829 128.426 63.6286 128.528 63.2932L129.852 58.9504C129.954 58.615 130.309 58.4253 130.645 58.5276ZM132.645 58.5276C132.98 58.6299 133.169 58.9851 133.067 59.3206L131.743 63.6633C131.64 63.9988 131.285 64.1876 130.95 64.0852C130.614 63.9829 130.426 63.6286 130.528 63.2932L131.852 58.9504C131.954 58.615 132.309 58.4253 132.645 58.5276Z" fill="#FFAEAE"/>
<path d="M94.645 58.5276C94.9803 58.6299 95.1698 58.9843 95.0678 59.3196L93.7426 63.6624C93.6403 63.9979 93.2852 64.1876 92.9497 64.0852C92.6143 63.9828 92.4255 63.6277 92.5278 63.2923L93.853 58.9495C93.9553 58.6141 94.3096 58.4255 94.645 58.5276ZM96.645 58.5276C96.9803 58.6299 97.1698 58.9843 97.0678 59.3196L95.7426 63.6624C95.6403 63.9979 95.2852 64.1876 94.9497 64.0852C94.6143 63.9828 94.4255 63.6277 94.5278 63.2923L95.853 58.9495C95.9553 58.6141 96.3096 58.4255 96.645 58.5276ZM98.645 58.5276C98.9803 58.6299 99.1698 58.9843 99.0678 59.3196L97.7426 63.6624C97.6403 63.9979 97.2852 64.1876 96.9497 64.0852C96.6143 63.9828 96.4255 63.6277 96.5278 63.2923L97.853 58.9495C97.9553 58.6141 98.3096 58.4255 98.645 58.5276ZM100.645 58.5276C100.98 58.6299 101.17 58.9843 101.068 59.3196L99.7426 63.6624C99.6403 63.9979 99.2852 64.1876 98.9497 64.0852C98.6143 63.9828 98.4255 63.6277 98.5278 63.2923L99.853 58.9495C99.9553 58.6141 100.31 58.4255 100.645 58.5276Z" fill="#FFAEAE"/>
</svg>
